<?xml version="1.0" standalone="no"?>
<!DOCTYPE svg PUBLIC "-//W3C//DTD SVG 20010904//EN"
 "http://www.w3.org/TR/2001/REC-SVG-20010904/DTD/svg10.dtd">
<svg version="1.0" xmlns="http://www.w3.org/2000/svg"
 width="400.000000pt" height="400.000000pt" viewBox="0 0 400.000000 400.000000"
 preserveAspectRatio="xMidYMid meet">

<g transform="translate(0.000000,400.000000) scale(0.100000,-0.100000)"
fill="#000000" stroke="none">
<path d="M2 3118 l1 -883 13 640 c18 934 18 1125 -1 1125 -13 0 -15 -104 -13
-882z"/>
<path d="M1780 3962 c5 -2 -11 -15 -36 -28 -44 -24 -77 -34 -40 -13 15 9 16
13 5 20 -19 12 -32 11 -24 -1 3 -5 -7 -12 -22 -16 -48 -10 -52 -12 -46 -32 3
-14 -4 -23 -30 -35 -19 -10 -37 -17 -40 -17 -3 0 -19 -13 -35 -30 -30 -30 -52
-39 -52 -21 0 5 -9 7 -20 4 -11 -3 -20 -9 -20 -15 0 -5 -16 -18 -36 -30 -23
-13 -37 -30 -41 -49 -3 -16 -14 -31 -24 -34 -11 -4 -19 -11 -19 -16 0 -5 -7
-9 -15 -9 -8 0 -15 -9 -15 -21 0 -11 -4 -18 -9 -15 -5 4 -12 -7 -16 -24 -4
-17 -10 -28 -14 -25 -12 7 -44 -70 -47 -113 -11 -141 -15 -266 -9 -260 6 6 19
51 31 108 6 34 44 109 98 200 25 41 42 78 40 82 -3 5 -2 7 3 6 8 -3 38 20 83
62 15 14 34 31 44 39 14 12 16 12 10 -3 -9 -23 19 -21 41 4 19 21 45 27 45 10
0 -5 13 -10 30 -10 23 0 28 -3 23 -16 -5 -15 3 -16 78 -10 74 6 90 5 133 -15
43 -19 55 -20 100 -11 28 6 76 15 106 21 92 16 115 23 123 37 4 8 18 14 30 13
31 0 109 -33 101 -42 -4 -4 1 -7 12 -7 24 0 80 -66 118 -140 16 -30 41 -70 56
-90 37 -47 81 -161 91 -235 6 -45 7 -29 4 60 -2 95 -8 136 -28 196 -35 104
-58 149 -76 149 -9 0 -23 5 -31 11 -12 8 -9 10 13 6 25 -4 27 -3 14 10 -8 8
-22 16 -32 17 -20 3 -34 26 -16 26 17 0 -11 48 -63 106 -32 37 -71 65 -133 97
-136 70 -247 107 -228 77 3 -5 -3 -10 -14 -10 -12 0 -21 7 -21 15 0 8 -5 15
-11 15 -5 0 -7 -4 -4 -10 9 -14 -9 -12 -23 2 -8 8 -40 13 -82 13 -39 0 -65 -1
-60 -3z m-330 -191 c0 -5 -9 -11 -21 -14 -16 -4 -18 -3 -8 9 13 16 29 19 29 5z
m-40 -46 c-7 -8 -18 -15 -24 -15 -6 0 -2 7 8 15 25 19 32 19 16 0z m-127 -160
c-3 -9 -8 -14 -10 -11 -3 3 -2 9 2 15 9 16 15 13 8 -4z"/>
<path d="M1550 3891 c0 -5 9 -7 20 -4 11 3 20 7 20 9 0 2 -9 4 -20 4 -11 0
-20 -4 -20 -9z"/>
<path d="M2210 3160 c0 -5 -7 -10 -16 -10 -34 0 -121 -34 -147 -59 -42 -38
-50 -60 -48 -120 3 -82 20 -106 80 -118 55 -11 67 -7 49 14 -8 10 -8 17 0 25
6 6 8 16 6 23 -9 23 18 29 35 7 9 -11 23 -21 31 -22 36 -5 60 1 60 15 0 9 9
15 21 15 17 0 19 -3 10 -14 -16 -19 -4 -25 68 -32 50 -6 61 -4 61 8 0 8 -9 23
-19 32 -11 10 -17 24 -15 31 3 7 -10 22 -28 35 -18 12 -24 19 -14 16 17 -6 17
-5 5 11 -12 15 -12 16 3 10 12 -4 15 -2 11 9 -3 9 1 14 12 14 9 0 14 -4 10 -9
-4 -7 46 -41 62 -41 13 0 -1 72 -18 94 -26 33 -122 83 -127 67 -5 -14 -49 -15
-57 -1 -3 6 -13 10 -21 10 -8 0 -14 -4 -14 -10z m95 -194 c17 -10 21 -14 10
-10 -11 4 -50 9 -87 12 -69 4 -91 18 -40 24 37 5 81 -5 117 -26z"/>
<path d="M1669 3125 c-3 -2 -21 -6 -40 -8 -40 -3 -129 -43 -129 -57 0 -6 10
-10 23 -11 49 -1 107 -8 117 -14 17 -10 12 -23 -12 -31 l-23 -8 25 -6 c23 -6
21 -8 -20 -19 -51 -15 -116 -46 -125 -60 -6 -11 43 1 71 17 14 8 20 6 29 -11
8 -17 20 -22 50 -22 36 0 40 3 43 27 4 31 32 28 32 -3 0 -20 24 -26 35 -9 4 6
15 6 32 -1 23 -8 24 -8 13 6 -10 12 -10 18 0 30 10 12 10 21 1 41 -16 37 -14
54 9 54 26 0 26 31 1 54 -10 10 -36 19 -57 22 -22 2 -46 7 -55 9 -8 3 -18 3
-20 0z"/>
<path d="M1436 3055 c-19 -14 -18 -15 14 -12 18 1 35 8 38 15 5 17 -29 15 -52
-3z"/>
<path d="M2573 3003 c-7 -3 -13 -19 -12 -36 l1 -32 14 34 c16 36 16 41 -3 34z"/>
<path d="M2609 2973 c-6 -15 -8 -50 -5 -78 19 -164 19 -163 0 -197 -11 -18
-39 -83 -64 -143 -36 -90 -51 -116 -83 -143 -49 -40 -67 -31 -60 31 l5 43 -57
19 c-59 20 -119 75 -194 179 -19 26 -41 46 -52 46 -23 0 -23 3 1 -45 22 -43
25 -61 10 -70 -10 -6 -50 13 -63 30 -4 6 -14 2 -25 -11 -23 -29 -49 -36 -56
-17 -5 13 -9 13 -22 2 -9 -7 -20 -23 -25 -36 -5 -13 -17 -23 -27 -23 -19 0
-62 -42 -62 -60 0 -6 -4 -10 -10 -10 -5 0 -26 -11 -46 -25 -20 -14 -44 -25
-53 -25 -9 0 -32 -17 -52 -38 -33 -35 -35 -41 -33 -97 1 -33 3 -63 3 -67 1 -5
7 -8 14 -8 13 0 30 20 50 60 41 81 261 119 383 65 35 -16 40 -21 28 -32 -8 -8
-19 -11 -25 -7 -8 4 -7 9 2 15 11 7 10 9 -3 9 -9 0 -18 -4 -20 -10 -1 -5 -36
-12 -76 -15 -40 -2 -81 -9 -92 -15 -11 -6 -25 -8 -30 -5 -14 8 -13 2 6 -45 9
-22 19 -40 23 -40 5 0 12 -10 18 -22 8 -20 3 -29 -39 -71 -40 -39 -49 -45 -55
-31 -5 15 -8 14 -16 -7 -5 -13 -11 -19 -14 -12 -3 8 -12 9 -26 4 -35 -13 -90
-1 -113 25 -12 13 -27 24 -34 24 -7 0 -23 11 -36 25 -13 14 -30 25 -38 25 -9
0 -20 14 -25 33 -5 17 -10 24 -10 15 -1 -25 -21 -22 -21 3 0 33 -18 59 -37 52
-11 -4 -14 -3 -9 5 4 7 4 22 0 35 -7 21 -7 21 -15 2 -6 -17 -8 -17 -8 -2 -1
21 -31 23 -31 2 0 -8 -3 -15 -6 -15 -9 0 -34 28 -34 37 0 5 -9 9 -20 10 -11 1
-20 -2 -20 -7 0 -13 32 -94 40 -100 3 -3 11 -18 18 -34 10 -23 10 -31 1 -37
-9 -5 -7 -8 4 -10 14 -4 14 -7 0 -39 -9 -19 -17 -41 -19 -48 -1 -8 -5 -16 -8
-20 -13 -12 -13 5 -1 51 13 51 1 61 -21 18 -7 -13 -17 -28 -23 -34 -6 -6 -11
-19 -11 -30 0 -10 -16 -33 -35 -50 -52 -46 -68 -106 -51 -201 7 -41 22 -86 34
-104 12 -16 22 -36 22 -42 0 -26 -30 13 -65 82 -34 69 -35 70 -35 34 0 -46 36
-183 57 -215 9 -14 11 -27 5 -33 -10 -10 -84 133 -86 169 -2 23 -16 45 -16 25
0 -7 -13 -26 -30 -43 -23 -25 -35 -30 -55 -25 -18 5 -28 1 -37 -14 -15 -23
-30 -27 -22 -5 7 16 0 18 -31 6 -11 -5 -20 -14 -20 -21 0 -20 -52 -31 -110
-24 -45 5 -54 2 -78 -20 -16 -14 -33 -26 -38 -26 -6 0 -7 -4 -4 -10 4 -6 -18
-10 -57 -11 -45 0 -57 -3 -43 -9 19 -9 19 -9 -2 -16 -13 -3 -21 -10 -18 -14 2
-4 -8 -5 -23 -3 -19 3 -23 2 -14 -5 11 -7 8 -11 -11 -16 -14 -3 -33 -9 -43
-13 -12 -4 -15 -3 -10 5 4 7 1 12 -6 12 -7 1 7 12 32 25 25 13 38 24 29 25
-20 0 -119 -50 -156 -80 -31 -24 -22 -26 15 -3 27 17 27 17 9 -3 -9 -11 -17
-24 -17 -27 0 -4 -14 -22 -31 -39 -17 -18 -26 -34 -20 -36 6 -2 8 -8 5 -13 -3
-6 -12 -2 -20 8 -11 14 -13 15 -14 3 0 -8 14 -28 32 -43 29 -26 27 -25 -17 5
-27 18 -56 41 -64 51 -12 17 -14 17 -32 1 -28 -25 -23 -84 8 -84 10 0 12 -6 7
-22 -4 -13 -7 -36 -5 -52 l2 -29 -21 24 -20 24 6 -27 c3 -15 1 -41 -4 -57 -6
-16 -7 -32 -4 -36 15 -15 11 -87 -5 -103 -15 -16 -15 -17 1 -20 16 -3 16 -5
-3 -18 -24 -18 -27 -34 -6 -34 13 0 12 -3 -2 -19 -12 -15 -21 -17 -35 -10 -14
7 -16 6 -12 -6 4 -8 1 -15 -4 -15 -19 0 -41 -59 -35 -95 3 -19 10 -35 16 -35
5 0 4 -6 -2 -14 -9 -11 -10 -25 -2 -53 6 -21 11 -52 11 -69 0 -25 -6 -32 -34
-44 -54 -21 -67 -86 -43 -220 10 -53 20 -80 31 -80 6 0 5 -4 -3 -9 -12 -8 -12
-15 0 -53 11 -34 12 -48 3 -66 -8 -17 -13 -20 -17 -10 -3 7 -6 0 -6 -16 -1
-23 2 -27 17 -21 68 30 231 85 251 85 14 0 83 -23 153 -52 71 -28 131 -48 135
-45 3 4 -15 25 -40 47 -25 22 -48 49 -52 59 -6 20 -90 54 -185 75 -102 23
-151 66 -135 117 14 42 164 33 334 -22 l105 -33 153 -153 153 -153 239 0 239
0 7 65 c4 36 5 69 1 72 -3 4 -6 -1 -6 -10 0 -10 -4 -17 -10 -17 -12 0 -13 60
-1 79 5 7 14 10 20 7 7 -5 11 3 10 21 0 15 -3 22 -6 16 -2 -7 -9 -13 -15 -13
-7 0 -8 20 -4 59 7 61 -8 150 -28 163 -6 4 -22 4 -35 1 -24 -6 -24 -5 8 40 38
56 39 70 4 61 l-27 -7 22 31 c24 33 28 57 12 67 -6 4 -8 16 -4 27 5 17 3 18
-15 9 -12 -7 -21 -16 -21 -21 0 -6 -4 -10 -10 -10 -13 0 -13 46 0 70 6 12 16
17 26 13 13 -5 14 2 7 48 -4 30 -7 126 -7 214 1 146 4 174 38 325 21 91 46
189 57 218 10 29 19 62 19 73 0 24 29 37 41 18 13 -22 11 -58 -10 -124 -16
-52 -27 -98 -66 -290 -31 -149 -31 -299 0 -480 12 -77 24 -133 24 -125 1 11 6
9 20 -7 22 -27 31 -29 31 -8 0 8 5 15 11 15 7 0 8 -12 4 -33 -10 -43 -11 -44
-33 -17 l-19 23 -5 -25 c-3 -15 2 -41 10 -60 14 -30 16 -31 19 -11 7 37 19 26
15 -12 -4 -35 -16 -46 -25 -22 -8 23 -15 2 -10 -32 4 -23 8 -29 14 -20 5 9 9
-13 9 -56 0 -47 3 -65 10 -55 15 24 21 5 11 -39 -5 -23 -7 -49 -4 -59 2 -9 -3
-44 -11 -77 -9 -32 -16 -70 -16 -82 l0 -23 305 0 305 0 -6 48 c-8 75 -14 92
-26 89 -19 -3 -22 35 -4 45 9 5 14 14 11 19 -4 5 -11 7 -16 3 -6 -3 -8 88 -7
243 l3 248 28 3 c22 3 27 -1 28 -20 2 -42 27 145 48 362 27 269 28 276 58 300
33 25 58 27 48 3 -18 -46 -25 -84 -35 -211 -14 -175 -27 -304 -38 -367 -5 -27
-6 -84 -2 -125 l7 -75 1 65 c2 65 2 66 32 68 l29 2 4 -77 3 -78 2 76 c2 74 3
77 27 77 l25 0 3 -157 3 -156 2 158 c1 96 6 157 12 157 6 0 10 -31 10 -72 1
-70 4 -150 15 -326 4 -67 3 -82 -9 -82 -11 0 -16 17 -19 68 l-3 67 -2 -67 c-2
-65 -3 -68 -26 -68 -13 0 -27 6 -29 13 -4 8 -6 7 -6 -3 -1 -19 -91 -26 -103
-7 -4 6 -9 66 -10 132 l-2 120 -5 -140 c-4 -77 -3 -145 2 -151 4 -6 4 -25 1
-42 -4 -17 -3 -56 1 -87 l6 -55 360 0 360 0 50 42 c35 30 52 53 60 82 6 22 20
56 30 76 10 19 25 52 33 73 10 25 21 37 34 37 19 0 46 -23 38 -31 -12 -12 -44
-109 -36 -109 5 0 24 13 42 29 18 15 53 39 78 51 25 13 56 31 69 41 13 11 32
19 42 19 21 0 49 -36 49 -62 0 -23 -74 -104 -113 -124 -38 -20 -119 -97 -92
-88 11 3 70 30 132 60 109 52 137 57 155 30 24 -35 -6 -82 -72 -110 -32 -14
-8 -15 303 -16 l337 0 -2 833 -1 832 -13 -620 c-6 -341 -13 -629 -14 -640 0
-11 -14 15 -31 59 -27 71 -29 88 -28 195 1 130 -17 234 -55 309 -13 26 -38 87
-55 136 -17 49 -45 115 -61 145 -23 44 -29 67 -27 108 2 45 -2 56 -25 79 -25
26 -29 27 -67 15 -23 -6 -52 -23 -66 -37 -14 -14 -25 -21 -25 -16 0 5 9 17 20
27 27 25 25 45 -4 45 -14 0 -27 4 -30 9 -3 5 0 8 7 7 23 -2 13 19 -26 52 -41
34 -44 35 -93 32 -18 -1 -51 4 -75 11 -43 11 -43 12 -19 22 25 10 24 10 -15
23 -22 7 -53 13 -68 13 -16 1 -26 5 -23 10 3 5 -13 11 -36 15 -58 10 -64 16
-33 40 18 14 28 34 32 62 l5 40 -63 -2 -64 -3 53 10 c28 6 52 14 52 18 0 17
-69 69 -120 90 -30 13 -67 30 -82 37 -14 8 -41 14 -58 14 -56 0 -233 31 -254
45 -12 8 -39 17 -61 20 -39 7 -118 39 -143 58 -9 7 -8 16 7 41 10 17 29 63 41
101 12 39 26 77 31 85 20 33 69 208 69 246 0 16 7 40 14 54 39 68 86 202 86
242 -1 34 -35 131 -48 136 -7 2 -17 -9 -23 -25z m-763 -568 c-30 -16 -43 -14
-31 4 3 6 18 11 33 11 l27 0 -29 -15z m503 -80 c2 -13 -1 -16 -12 -12 -11 4
-18 -1 -23 -15 -9 -30 -24 -2 -17 34 4 22 8 25 27 19 11 -5 23 -16 25 -26z
m-166 -65 c-4 -61 -26 -110 -52 -117 -55 -14 -79 40 -37 82 14 14 26 34 26 44
0 24 6 28 38 27 24 -1 27 -4 25 -36z m-709 -16 c3 -8 2 -12 -4 -9 -6 3 -10 10
-10 16 0 14 7 11 14 -7z m46 -249 c16 -8 34 -15 40 -15 5 0 19 -9 30 -20 11
-11 27 -20 36 -20 8 0 32 -16 52 -35 24 -22 54 -38 87 -46 27 -7 52 -15 55
-18 3 -4 21 -17 41 -29 29 -17 35 -27 32 -46 -3 -13 0 -27 7 -31 8 -5 6 -11
-6 -19 -16 -12 -16 -14 1 -39 9 -15 22 -24 28 -20 6 4 8 0 4 -11 -4 -9 0 -24
8 -34 8 -9 24 -27 34 -39 11 -12 17 -24 14 -27 -15 -14 29 -16 62 -1 38 15 75
12 75 -6 0 -6 -17 -18 -37 -27 -30 -13 -68 -17 -183 -17 -187 0 -235 16 -321
104 -102 105 -117 142 -154 386 -21 144 -21 146 26 82 22 -32 53 -64 69 -72z
m890 -21 c0 -48 -16 -43 -17 6 0 22 3 37 8 34 5 -3 9 -21 9 -40z m330 -17
c-27 -15 -36 -14 -25 2 3 6 16 11 28 11 21 0 21 -1 -3 -13z m91 -44 c13 -16
12 -17 -3 -4 -17 13 -22 21 -14 21 2 0 10 -8 17 -17z m114 -111 c-3 -3 -11 0
-18 7 -9 10 -8 11 6 5 10 -3 15 -9 12 -12z m-1829 -249 c-9 -43 -22 -164 -30
-269 -7 -106 -16 -196 -20 -202 -3 -5 -6 -42 -7 -81 -1 -40 -6 -71 -12 -71
-14 0 1 323 19 418 8 40 14 88 14 105 0 41 44 217 48 195 2 -10 -4 -53 -12
-95z m-329 -9 c-3 -3 -12 -4 -19 -1 -8 3 -5 6 6 6 11 1 17 -2 13 -5z m61 -48
c-26 -24 -59 -66 -73 -92 -13 -27 -25 -41 -25 -31 0 10 7 32 16 49 18 34 102
118 119 118 5 -1 -11 -20 -37 -44z m2709 -42 c-3 -3 -12 -4 -19 -1 -8 3 -5 6
6 6 11 1 17 -2 13 -5z m-3041 -19 c-8 -8 -17 -15 -20 -15 -3 0 -3 7 0 15 4 8
13 15 21 15 12 0 12 -2 -1 -15z m2994 -19 c0 -2 -8 -10 -17 -17 -16 -13 -17
-12 -4 4 13 16 21 21 21 13z m-2986 -31 c3 -8 1 -15 -4 -15 -6 0 -10 7 -10 15
0 8 2 15 4 15 2 0 6 -7 10 -15z m54 -87 c9 -11 14 -36 14 -63 -1 -27 3 -43 8
-40 6 3 7 -1 4 -10 -6 -13 -10 -11 -25 12 -21 31 -24 53 -9 53 6 0 10 7 10 16
0 14 -2 15 -17 3 -15 -12 -16 -12 -10 3 3 9 1 18 -5 20 -7 3 -8 13 -3 28 6 18
10 21 13 10 2 -8 11 -23 20 -32z m1187 2 c-3 -5 -12 -10 -18 -10 -7 0 -6 4 3
10 19 12 23 12 15 0z m-1337 -108 c20 -40 14 -37 -23 11 -19 25 -35 49 -35 53
0 12 43 -37 58 -64z m179 -64 c-3 -8 -6 -5 -6 6 -1 11 2 17 5 13 3 -3 4 -12 1
-19z m-217 -184 c0 -22 -16 -17 -17 6 -1 11 2 18 8 15 5 -4 9 -13 9 -21z m665
-34 c3 -5 1 -10 -4 -10 -6 0 -11 5 -11 10 0 6 2 10 4 10 3 0 8 -4 11 -10z
m-12 -35 c-3 -9 -8 -14 -10 -11 -3 3 -2 9 2 15 9 16 15 13 8 -4z m65 -168 c2
-16 -2 -35 -9 -43 -14 -17 -50 -19 -66 -3 -8 8 -18 6 -35 -5 -14 -9 -28 -13
-31 -9 -9 8 -9 46 -1 67 9 22 54 21 54 -1 0 -14 3 -13 16 5 23 34 68 27 72
-11z m48 8 c4 -8 10 -15 15 -15 5 0 9 7 9 15 0 8 5 15 11 15 8 0 10 -12 6 -36
-8 -46 -15 -54 -31 -31 -16 21 -26 22 -26 2 0 -8 -4 -15 -10 -15 -12 0 -12 7
-4 49 7 33 21 41 30 16z m104 5 c0 -6 -4 -18 -9 -28 -5 -9 -12 -26 -16 -36 -8
-25 -11 -19 -18 32 -5 39 -4 42 19 42 13 0 24 -5 24 -10z m1304 -254 c11 -157
14 -242 7 -249 -6 -6 -11 6 -15 34 -10 86 -33 454 -29 462 14 24 22 -28 37
-247z m-946 227 c-2 -10 -10 -18 -18 -18 -8 0 -16 -8 -18 -18 -3 -15 0 -18 17
-12 18 5 20 2 17 -32 -1 -30 -6 -38 -21 -38 -11 0 -21 -8 -23 -19 -3 -15 0
-18 16 -14 17 5 19 0 19 -33 0 -33 -3 -38 -20 -36 -13 1 -23 -5 -25 -15 -3
-14 3 -18 22 -18 28 0 35 -17 11 -26 -14 -6 -13 -8 2 -20 18 -13 15 -16 -22
-18 -13 -1 -20 -8 -20 -21 0 -15 6 -19 23 -17 15 1 22 -2 20 -10 -3 -7 -18
-13 -34 -13 -25 0 -29 4 -32 32 -2 22 3 35 18 46 18 12 19 16 5 27 -21 18 -19
56 5 73 18 12 18 15 5 20 -21 9 -19 61 2 83 13 13 14 19 5 22 -17 5 -15 58 4
76 21 22 46 21 42 -1z m58 -180 c-8 -249 -14 -303 -34 -303 -13 0 -14 14 -9
98 4 53 7 166 7 250 0 149 0 152 21 152 22 0 22 0 15 -197z m42 45 c-3 -88 -2
-130 2 -98 5 30 8 97 9 148 l1 92 30 0 c17 0 30 -5 30 -11 0 -5 5 -7 10 -4 7
4 10 -79 10 -241 0 -162 -3 -245 -10 -238 -5 5 -11 93 -13 199 l-2 190 -3
-192 -2 -193 -56 0 -56 0 6 32 c3 18 8 125 12 238 6 220 7 230 25 230 9 0 11
-39 7 -152z m723 124 l2 -27 4 28 c4 22 9 27 32 27 l28 0 12 -187 c6 -104 14
-214 18 -246 5 -48 3 -57 -11 -57 -9 0 -16 6 -17 13 0 9 -2 9 -6 0 -11 -29
-23 -10 -25 40 l-2 52 -3 -52 c-4 -51 -5 -53 -34 -53 l-29 0 -2 88 -2 87 -6
-90 c-5 -66 -7 -78 -10 -45 l-3 45 -4 -43 c-2 -23 -8 -42 -12 -42 -14 0 -30
464 -17 477 3 3 7 -27 8 -68 l2 -74 6 75 c4 41 7 68 9 60 1 -13 3 -13 11 0 5
9 18 16 29 17 16 1 21 -5 22 -25z m164 -220 c13 -175 15 -236 6 -245 -6 -6
-11 -7 -12 -1 0 5 -8 115 -18 244 -10 129 -16 239 -13 243 12 24 21 -29 37
-241z m28 231 c3 9 13 17 21 17 17 0 20 -21 36 -220 6 -74 13 -168 16 -207 4
-40 4 -73 1 -73 -27 0 -37 16 -39 64 l-1 51 -7 -55 c-10 -94 -17 -37 -46 375
-2 42 -1 62 4 51 8 -18 9 -18 15 -3z m121 6 c4 -4 22 -175 41 -411 l7 -77 -36
1 c-20 1 -36 4 -36 7 0 3 -9 105 -20 226 -26 285 -26 264 10 261 16 -1 32 -4
34 -7z m-1270 -21 l16 -22 0 22 c0 12 5 22 10 22 11 0 12 -23 1 -60 l-7 -25
-12 23 c-15 26 -29 28 -35 5 -3 -10 -5 -1 -6 20 -1 42 11 47 33 15z m57 -51
c-8 -8 -11 -1 -11 24 0 46 14 60 18 19 2 -18 -1 -37 -7 -43z m352 -47 l3 -105
2 108 c1 63 6 107 12 107 6 0 9 -88 8 -247 -2 -216 -3 -231 -8 -113 l-6 135
-2 -132 c-2 -109 -5 -133 -17 -133 -12 0 -15 37 -17 238 -2 130 -1 243 1 250
10 35 21 -13 24 -108z m82 -102 c8 -252 7 -271 -17 -276 -17 -3 -18 10 -20
165 -1 92 -2 200 -3 238 -1 65 7 95 25 95 4 0 11 -100 15 -222z m43 -31 c2
-215 0 -247 -13 -247 -13 0 -15 33 -15 251 0 196 3 250 13 247 9 -4 13 -65 15
-251z m-165 61 c11 -294 10 -307 -13 -305 -19 1 -20 8 -20 244 0 197 3 243 13
243 11 0 15 -40 20 -182z m-755 95 c2 -23 -3 -35 -20 -48 -21 -15 -22 -17 -5
-26 35 -20 11 -89 -32 -89 -10 0 -24 7 -32 16 -11 14 -13 14 -21 0 -5 -9 -18
-16 -29 -16 -18 0 -20 6 -17 43 2 35 7 43 26 45 16 2 25 -3 31 -20 7 -16 10
-18 10 -6 1 9 9 21 19 27 16 9 16 11 -3 25 -17 12 -21 12 -28 0 -4 -8 -17 -14
-27 -14 -17 0 -20 7 -20 45 0 41 2 45 25 45 14 0 28 -7 32 -15 5 -13 8 -12 20
5 10 14 23 20 41 18 22 -2 28 -9 30 -35z m48 10 c12 -17 13 -17 19 0 13 33 27
18 20 -20 -9 -48 -11 -50 -35 -28 -18 16 -20 16 -20 2 0 -10 -4 -17 -10 -17
-11 0 -14 63 -3 73 10 10 15 9 29 -10z m104 7 c0 -5 -4 -10 -9 -10 -5 0 -12
-16 -16 -36 -8 -45 -19 -36 -20 16 -1 35 2 40 22 40 13 0 23 -4 23 -10z m84 4
c21 -8 20 -43 -1 -51 -10 -4 -22 -13 -26 -20 -13 -21 -25 -6 -20 24 9 56 13
60 47 47z m206 -51 c0 -16 -5 -35 -10 -43 -7 -11 -10 -4 -10 28 0 23 5 42 10
42 6 0 10 -12 10 -27z m-1410 -59 c0 -3 -7 -1 -15 6 -8 7 -15 17 -15 22 0 5 7
3 15 -6 8 -8 15 -18 15 -22z m-30 0 c0 -2 -7 -4 -15 -4 -8 0 -15 4 -15 10 0 5
7 7 15 4 8 -4 15 -8 15 -10z m1032 -1 c17 -15 18 -15 18 0 0 10 5 17 10 17 13
0 13 -77 1 -85 -5 -3 -16 4 -24 15 l-14 21 -6 -21 c-3 -11 -11 -20 -17 -20 -7
0 -10 7 -6 16 3 9 6 29 6 45 0 33 6 36 32 12z m93 0 c-3 -10 -9 -30 -12 -45
-7 -37 -23 -36 -23 1 0 16 -3 36 -6 45 -5 12 0 16 21 16 22 0 26 -3 20 -17z
m103 5 c7 -7 12 -15 12 -20 0 -9 -52 -58 -63 -58 -7 0 0 66 10 83 6 11 27 9
41 -5z m201 -35 c-1 -10 -5 -29 -9 -43 -7 -21 -8 -19 -9 18 -1 23 4 42 9 42 6
0 10 -8 9 -17z m-1419 3 c0 -3 -4 -8 -10 -11 -5 -3 -10 -1 -10 4 0 6 5 11 10
11 6 0 10 -2 10 -4z m29 -28 c0 -28 -2 -30 -9 -13 -12 28 -12 45 0 45 6 0 10
-15 9 -32z m843 -47 c12 -20 12 -20 26 0 7 10 21 19 31 19 43 0 56 -58 19 -85
-21 -15 -22 -17 -5 -26 20 -11 23 -59 5 -77 -20 -20 -59 -15 -65 8 l-6 21 -14
-21 c-25 -35 -43 -25 -43 25 0 39 3 45 20 45 12 0 24 -10 30 -22 6 -17 9 -18
9 -6 1 9 9 21 18 26 15 9 15 11 0 26 -9 10 -18 12 -22 6 -3 -5 -18 -10 -32
-10 -23 0 -25 3 -19 31 3 17 6 38 6 45 0 21 28 17 42 -5z m139 -3 l18 -23 1
23 c0 12 5 22 10 22 14 0 13 -77 -2 -86 -6 -4 -17 1 -25 11 -12 17 -13 17 -13
2 0 -9 -7 -17 -16 -17 -11 0 -14 5 -10 16 3 9 6 29 6 45 0 35 6 36 31 7z m99
7 c0 -8 -4 -15 -10 -15 -5 0 -10 -13 -10 -30 0 -50 -25 -36 -26 15 -1 41 1 45
22 45 15 0 24 -6 24 -15z m100 -21 c0 -17 -6 -28 -20 -31 -11 -3 -20 -12 -20
-19 0 -8 -4 -14 -10 -14 -12 0 -13 15 -4 59 5 24 12 31 30 31 19 0 24 -5 24
-26z m59 4 c25 -66 25 -65 -24 -64 -25 1 -45 2 -45 4 0 5 53 82 57 82 2 0 7
-10 12 -22z m134 -35 c-8 -52 -13 -54 -13 -5 0 23 4 42 9 42 6 0 7 -17 4 -37z
m-401 -60 c17 -15 18 -15 18 0 0 10 5 17 10 17 13 0 13 -77 1 -85 -5 -3 -16 4
-24 15 l-14 21 -6 -22 c-9 -35 -23 -13 -19 30 5 46 8 48 34 24z m98 8 c0 -6
-4 -13 -10 -16 -5 -3 -10 -17 -10 -30 0 -13 -4 -27 -10 -30 -6 -4 -10 6 -10
24 0 16 -3 36 -6 45 -5 12 0 16 20 16 14 0 26 -4 26 -9z m98 -14 c3 -15 -39
-67 -54 -67 -6 0 -5 41 2 68 8 28 47 27 52 -1z m72 -33 c13 -39 8 -53 -14 -35
-8 7 -25 9 -41 5 -26 -6 -27 -6 -15 17 18 34 41 59 51 54 4 -3 13 -21 19 -41z
m218 18 c3 -9 -3 -13 -14 -12 -35 4 -44 0 -44 -20 0 -16 7 -20 31 -20 27 0 30
-2 19 -15 -16 -19 -35 -19 -54 1 -21 20 -20 48 0 69 19 18 55 17 62 -3z m-629
-79 c9 -17 11 -17 23 0 9 12 23 18 39 15 20 -2 25 -9 27 -40 3 -33 0 -40 -24
-50 -23 -11 -28 -10 -44 10 -15 18 -19 19 -24 7 -3 -8 -12 -15 -21 -15 -11 0
-15 11 -15 45 0 48 19 62 39 28z m151 -11 c0 9 5 20 10 23 6 4 10 -12 10 -39
0 -49 -13 -59 -36 -28 -13 16 -13 16 -14 0 0 -37 -20 -16 -20 20 0 49 8 57 31
29 15 -18 18 -19 19 -5z m80 13 c0 -8 -4 -15 -10 -15 -5 0 -10 -13 -10 -30 0
-16 -4 -30 -10 -30 -5 0 -10 10 -10 23 0 12 -3 32 -6 45 -5 19 -2 22 20 22 16
0 26 -5 26 -15z m100 -16 c0 -21 -47 -75 -57 -65 -3 2 -2 23 2 45 6 35 10 41
31 41 18 0 24 -5 24 -21z m65 -15 c20 -48 20 -71 0 -54 -9 7 -26 9 -47 5 -32
-7 -32 -7 -17 16 9 13 21 34 28 47 16 29 18 28 36 -14z m301 4 c-2 -16 -9 -22
-22 -20 -25 5 -28 8 -21 27 4 8 15 15 27 15 15 0 19 -5 16 -22z m-76 -2 c0
-10 -9 -14 -27 -13 -22 2 -28 -2 -28 -18 0 -14 8 -21 28 -23 33 -4 26 -22 -8
-22 -14 0 -29 8 -35 19 -14 27 -13 37 6 55 20 20 64 21 64 2z m610 -12 c0 -14
-4 -23 -10 -19 -5 3 -10 15 -10 26 0 10 5 19 10 19 6 0 10 -12 10 -26z m50 4
c0 -10 -7 -18 -15 -18 -8 0 -15 8 -15 18 0 10 7 19 15 19 8 0 15 -9 15 -19z
m38 0 c-5 -32 -28 -35 -28 -4 0 17 5 26 16 26 10 0 14 -7 12 -22z m82 2 c0
-13 -7 -20 -20 -20 -13 0 -20 7 -20 20 0 13 7 20 20 20 13 0 20 -7 20 -20z
m47 5 c7 -20 -2 -29 -21 -22 -9 4 -13 13 -10 22 8 19 23 19 31 0z m43 -5 c0
-11 -7 -20 -15 -20 -8 0 -15 9 -15 20 0 11 7 20 15 20 8 0 15 -9 15 -20z m30
-2 c0 -16 -3 -19 -11 -11 -6 6 -8 16 -5 22 11 17 16 13 16 -11z m50 0 c0 -11
-7 -18 -20 -18 -13 0 -20 7 -20 19 0 14 6 19 20 18 12 -1 20 -8 20 -19z m88
-12 c-2 -10 -7 -13 -17 -7 -8 6 -11 16 -7 27 8 21 30 4 24 -20z m39 19 c8 -22
-6 -33 -17 -15 -13 20 -12 30 0 30 6 0 13 -7 17 -15z m-857 -21 c0 -8 -7 -14
-15 -14 -15 0 -21 21 -9 33 10 9 24 -2 24 -19z m60 1 c0 -14 -4 -25 -10 -25
-5 0 -10 11 -10 25 0 14 5 25 10 25 6 0 10 -11 10 -25z m40 -1 c0 -14 -5 -24
-11 -22 -6 2 -10 7 -10 11 1 4 1 14 1 22 0 8 5 15 10 15 6 0 10 -12 10 -26z
m70 -5 c0 -10 -7 -19 -15 -19 -16 0 -19 9 -9 34 8 20 24 11 24 -15z m38 9 c-4
-27 -28 -36 -28 -10 0 20 8 32 22 32 5 0 8 -10 6 -22z m570 4 c2 -7 -5 -12
-17 -12 -14 0 -19 5 -14 15 6 17 25 15 31 -3z m-753 -1 c3 -5 1 -12 -5 -16 -5
-3 -10 1 -10 9 0 18 6 21 15 7z m-115 -36 c0 -14 -4 -25 -10 -25 -5 0 -10 8
-10 18 0 11 -3 13 -8 5 -4 -7 -22 -14 -40 -18 -27 -4 -32 -2 -32 15 0 13 7 20
20 20 11 0 20 -4 20 -9 0 -6 12 -3 28 5 34 18 32 18 32 -11z"/>
<path d="M1053 704 c-8 -20 8 -36 26 -25 15 10 8 41 -9 41 -6 0 -13 -7 -17
-16z"/>
<path d="M986 694 c-4 -9 -4 -19 -1 -22 2 -3 7 3 11 12 4 9 4 19 1 22 -2 3 -7
-3 -11 -12z"/>
<path d="M1702 350 c0 -19 2 -27 5 -17 2 9 2 25 0 35 -3 9 -5 1 -5 -18z"/>
<path d="M1692 270 c0 -14 2 -19 5 -12 2 6 2 18 0 25 -3 6 -5 1 -5 -13z"/>
<path d="M2473 625 c0 -44 2 -61 4 -37 2 23 2 59 0 80 -2 20 -4 1 -4 -43z"/>
<path d="M2453 565 c0 -44 2 -61 4 -37 2 23 2 59 0 80 -2 20 -4 1 -4 -43z"/>
<path d="M2394 515 c0 -66 1 -92 3 -57 2 34 2 88 0 120 -2 31 -3 3 -3 -63z"/>
<path d="M2483 480 c0 -36 2 -50 4 -32 2 17 2 47 0 65 -2 17 -4 3 -4 -33z"/>
<path d="M2374 415 c0 -60 1 -84 3 -52 2 32 2 81 0 110 -2 29 -3 3 -3 -58z"/>
<path d="M2463 410 c0 -41 2 -58 4 -37 2 20 2 54 0 75 -2 20 -4 3 -4 -38z"/>
<path d="M2493 330 c0 -41 2 -58 4 -37 2 20 2 54 0 75 -2 20 -4 3 -4 -38z"/>
<path d="M2633 625 c-1 -27 3 -77 7 -110 6 -54 7 -56 7 -15 1 25 -3 74 -7 110
-7 62 -7 62 -7 15z"/>
<path d="M2653 390 c0 -36 2 -50 4 -32 2 17 2 47 0 65 -2 17 -4 3 -4 -33z"/>
<path d="M970 590 c0 -19 3 -21 12 -12 9 9 9 15 0 24 -9 9 -12 7 -12 -12z"/>
<path d="M1040 589 c0 -25 33 -22 38 4 2 12 -3 17 -17 17 -15 0 -21 -6 -21
-21z"/>
<path d="M1033 494 c-9 -23 11 -38 26 -20 13 16 7 36 -10 36 -5 0 -12 -7 -16
-16z"/>
<path d="M960 485 c0 -8 5 -15 10 -15 6 0 10 7 10 15 0 8 -4 15 -10 15 -5 0
-10 -7 -10 -15z"/>
<path d="M1027 404 c-4 -4 -7 -16 -7 -26 0 -20 25 -25 36 -7 8 13 -19 43 -29
33z"/>
<path d="M956 385 c-3 -8 -1 -15 4 -15 6 0 10 7 10 15 0 8 -2 15 -4 15 -2 0
-6 -7 -10 -15z"/>
<path d="M952 280 c0 -14 2 -19 5 -12 2 6 2 18 0 25 -3 6 -5 1 -5 -13z"/>
<path d="M1013 284 c-8 -20 8 -36 26 -25 15 10 8 41 -9 41 -6 0 -13 -7 -17
-16z"/>
<path d="M940 170 c0 -19 3 -21 12 -12 9 9 9 15 0 24 -9 9 -12 7 -12 -12z"/>
<path d="M1002 173 c5 -26 38 -29 38 -4 0 15 -6 21 -21 21 -14 0 -19 -5 -17
-17z"/>
<path d="M1100 2958 c0 -7 -3 -24 -6 -38 -5 -25 -5 -25 20 4 14 17 23 33 20
38 -8 13 -34 9 -34 -4z"/>
<path d="M1486 2945 c-11 -8 -15 -15 -9 -15 6 0 16 7 23 15 16 19 11 19 -14 0z"/>
<path d="M2224 2838 c-9 -14 16 -28 52 -28 36 0 98 20 89 29 -11 10 -135 10
-141 -1z"/>
<path d="M1226 2815 c4 -8 8 -15 10 -15 2 0 4 7 4 15 0 8 -4 15 -10 15 -5 0
-7 -7 -4 -15z"/>
<path d="M2574 2807 c3 -10 6 -39 6 -63 0 -31 4 -43 11 -38 15 9 6 92 -11 107
-10 9 -12 8 -6 -6z"/>
<path d="M1829 2611 c-19 -15 -21 -22 -12 -32 17 -17 75 7 71 30 -5 23 -31 25
-59 2z"/>
<path d="M1202 2530 c-9 -25 -8 -31 8 -40 29 -15 48 -12 26 5 -10 8 -18 26
-18 40 0 33 -4 32 -16 -5z"/>
<path d="M1279 2403 c14 -28 17 -28 25 -6 4 10 4 14 0 10 -4 -4 -14 -1 -22 6
-13 10 -14 9 -3 -10z"/>
<path d="M1063 1698 c-2 -16 0 -16 13 -4 17 18 18 23 1 23 -7 0 -14 -9 -14
-19z"/>
<path d="M3615 1480 c-3 -5 1 -10 10 -10 9 0 13 5 10 10 -3 6 -8 10 -10 10 -2
0 -7 -4 -10 -10z"/>
<path d="M290 1380 c-19 -16 -31 -32 -27 -36 4 -4 21 7 39 24 40 42 33 49 -12
12z"/>
<path d="M2172 530 c0 -14 2 -19 5 -12 2 6 2 18 0 25 -3 6 -5 1 -5 -13z"/>
<path d="M2254 380 c0 -69 1 -97 3 -63 2 35 2 91 0 126 -2 34 -3 6 -3 -63z"/>
<path d="M0 70 l0 -75 20 32 c19 32 19 33 0 75 l-20 43 0 -75z"/>
</g>
</svg>
